<mxfile host="app.diagrams.net" modified="2023-12-03T11:34:25.579Z" agent="Mozilla/5.0 (Macintosh; Intel Mac OS X 10_15_7) AppleWebKit/537.36 (KHTML, like Gecko) Chrome/119.0.0.0 Safari/537.36" etag="q-2QxVUMnzPhBmrY5_JP" version="22.1.5" type="github">
  <diagram name="Page-1" id="DWxzMCH_1yADVqfLbKzR">
    <mxGraphModel dx="2236" dy="1267" grid="1" gridSize="10" guides="1" tooltips="1" connect="1" arrows="1" fold="1" page="1" pageScale="1" pageWidth="827" pageHeight="1169" math="0" shadow="0">
      <root>
        <mxCell id="0" />
        <mxCell id="1" parent="0" />
        <mxCell id="pEXNB3gbHOLg0qpx5999-55" value="" style="group" vertex="1" connectable="0" parent="1">
          <mxGeometry x="130" y="556" width="160" height="100" as="geometry" />
        </mxCell>
        <mxCell id="pEXNB3gbHOLg0qpx5999-56" value="" style="sketch=0;outlineConnect=0;fontColor=#232F3E;gradientColor=none;fillColor=#232F3D;strokeColor=none;dashed=0;verticalLabelPosition=bottom;verticalAlign=top;align=center;html=1;fontSize=12;fontStyle=0;aspect=fixed;pointerEvents=1;shape=mxgraph.aws4.external_toolkit;" vertex="1" parent="pEXNB3gbHOLg0qpx5999-55">
          <mxGeometry x="12.705882352941176" y="18.181818181818183" width="26.851764705882353" height="30.802139037433154" as="geometry" />
        </mxCell>
        <mxCell id="pEXNB3gbHOLg0qpx5999-57" value="Cost Tracking Center" style="fillColor=none;strokeColor=#5A6C86;dashed=1;verticalAlign=top;fontStyle=0;fontColor=#5A6C86;whiteSpace=wrap;html=1;" vertex="1" parent="pEXNB3gbHOLg0qpx5999-55">
          <mxGeometry width="160" height="100" as="geometry" />
        </mxCell>
        <mxCell id="pEXNB3gbHOLg0qpx5999-58" value="Provide:&amp;nbsp;&lt;br&gt;- Requirements API;&lt;br&gt;- Changes notification" style="text;html=1;strokeColor=none;fillColor=none;align=center;verticalAlign=middle;whiteSpace=wrap;rounded=0;" vertex="1" parent="pEXNB3gbHOLg0qpx5999-55">
          <mxGeometry x="15.76470588235294" y="45.45454545454546" width="128.47058823529412" height="27.272727272727277" as="geometry" />
        </mxCell>
        <mxCell id="pEXNB3gbHOLg0qpx5999-99" value="Region" style="points=[[0,0],[0.25,0],[0.5,0],[0.75,0],[1,0],[1,0.25],[1,0.5],[1,0.75],[1,1],[0.75,1],[0.5,1],[0.25,1],[0,1],[0,0.75],[0,0.5],[0,0.25]];outlineConnect=0;gradientColor=none;html=1;whiteSpace=wrap;fontSize=12;fontStyle=0;container=0;pointerEvents=0;collapsible=0;recursiveResize=0;shape=mxgraph.aws4.group;grIcon=mxgraph.aws4.group_region;strokeColor=#00A4A6;fillColor=none;verticalAlign=top;align=left;spacingLeft=30;fontColor=#147EBA;dashed=1;" vertex="1" parent="1">
          <mxGeometry x="310" y="400" width="1107" height="1150" as="geometry" />
        </mxCell>
        <mxCell id="pEXNB3gbHOLg0qpx5999-144" value="" style="group" vertex="1" connectable="0" parent="1">
          <mxGeometry x="1460" y="1160" width="300" height="120" as="geometry" />
        </mxCell>
        <mxCell id="pEXNB3gbHOLg0qpx5999-37" value="" style="group" vertex="1" connectable="0" parent="pEXNB3gbHOLg0qpx5999-144">
          <mxGeometry x="150" width="130" height="110" as="geometry" />
        </mxCell>
        <mxCell id="pEXNB3gbHOLg0qpx5999-30" value="" style="sketch=0;outlineConnect=0;fontColor=#232F3E;gradientColor=none;fillColor=#232F3D;strokeColor=none;dashed=0;verticalLabelPosition=bottom;verticalAlign=top;align=center;html=1;fontSize=12;fontStyle=0;aspect=fixed;pointerEvents=1;shape=mxgraph.aws4.external_toolkit;" vertex="1" parent="pEXNB3gbHOLg0qpx5999-37">
          <mxGeometry x="13.5" y="20" width="34.87" height="40" as="geometry" />
        </mxCell>
        <mxCell id="pEXNB3gbHOLg0qpx5999-35" value="Hotel Booking System" style="fillColor=none;strokeColor=#5A6C86;dashed=1;verticalAlign=top;fontStyle=0;fontColor=#5A6C86;whiteSpace=wrap;html=1;" vertex="1" parent="pEXNB3gbHOLg0qpx5999-37">
          <mxGeometry width="130" height="110" as="geometry" />
        </mxCell>
        <mxCell id="pEXNB3gbHOLg0qpx5999-36" value="Provide:&amp;nbsp;&lt;br&gt;- Search API&lt;br&gt;- Booking API&lt;br&gt;" style="text;html=1;strokeColor=none;fillColor=none;align=center;verticalAlign=middle;whiteSpace=wrap;rounded=0;" vertex="1" parent="pEXNB3gbHOLg0qpx5999-37">
          <mxGeometry x="13.5" y="70" width="100" height="30" as="geometry" />
        </mxCell>
        <mxCell id="pEXNB3gbHOLg0qpx5999-39" value="" style="group" vertex="1" connectable="0" parent="pEXNB3gbHOLg0qpx5999-144">
          <mxGeometry width="300" height="120" as="geometry" />
        </mxCell>
        <mxCell id="pEXNB3gbHOLg0qpx5999-40" value="" style="sketch=0;outlineConnect=0;fontColor=#232F3E;gradientColor=none;fillColor=#232F3D;strokeColor=none;dashed=0;verticalLabelPosition=bottom;verticalAlign=top;align=center;html=1;fontSize=12;fontStyle=0;aspect=fixed;pointerEvents=1;shape=mxgraph.aws4.external_toolkit;" vertex="1" parent="pEXNB3gbHOLg0qpx5999-39">
          <mxGeometry x="13.5" y="20" width="34.87" height="40" as="geometry" />
        </mxCell>
        <mxCell id="pEXNB3gbHOLg0qpx5999-41" value="Transport Booking System" style="fillColor=none;strokeColor=#5A6C86;dashed=1;verticalAlign=top;fontStyle=0;fontColor=#5A6C86;whiteSpace=wrap;html=1;" vertex="1" parent="pEXNB3gbHOLg0qpx5999-39">
          <mxGeometry width="130" height="110" as="geometry" />
        </mxCell>
        <mxCell id="pEXNB3gbHOLg0qpx5999-42" value="Provide:&amp;nbsp;&lt;br&gt;- Search API&lt;br&gt;- Booking API&lt;br&gt;" style="text;html=1;strokeColor=none;fillColor=none;align=center;verticalAlign=middle;whiteSpace=wrap;rounded=0;" vertex="1" parent="pEXNB3gbHOLg0qpx5999-39">
          <mxGeometry x="13.5" y="70" width="100" height="30" as="geometry" />
        </mxCell>
        <mxCell id="pEXNB3gbHOLg0qpx5999-143" value="" style="rounded=0;whiteSpace=wrap;html=1;fillColor=none;dashed=1;dashPattern=8 8;" vertex="1" parent="pEXNB3gbHOLg0qpx5999-39">
          <mxGeometry x="-20" y="-15" width="320" height="135" as="geometry" />
        </mxCell>
        <mxCell id="pEXNB3gbHOLg0qpx5999-122" value="" style="group" vertex="1" connectable="0" parent="1">
          <mxGeometry x="1080" y="470" width="150" height="350" as="geometry" />
        </mxCell>
        <mxCell id="pEXNB3gbHOLg0qpx5999-25" value="Supplier Portal" style="fillColor=none;strokeColor=#5A6C86;dashed=1;verticalAlign=top;fontStyle=0;fontColor=#5A6C86;whiteSpace=wrap;html=1;" vertex="1" parent="pEXNB3gbHOLg0qpx5999-122">
          <mxGeometry width="150" height="350" as="geometry" />
        </mxCell>
        <mxCell id="pEXNB3gbHOLg0qpx5999-11" value="API Gateway" style="sketch=0;points=[[0,0,0],[0.25,0,0],[0.5,0,0],[0.75,0,0],[1,0,0],[0,1,0],[0.25,1,0],[0.5,1,0],[0.75,1,0],[1,1,0],[0,0.25,0],[0,0.5,0],[0,0.75,0],[1,0.25,0],[1,0.5,0],[1,0.75,0]];outlineConnect=0;fontColor=#232F3E;fillColor=#E7157B;strokeColor=#ffffff;dashed=0;verticalLabelPosition=bottom;verticalAlign=top;align=center;html=1;fontSize=12;fontStyle=0;aspect=fixed;shape=mxgraph.aws4.resourceIcon;resIcon=mxgraph.aws4.api_gateway;" vertex="1" parent="pEXNB3gbHOLg0qpx5999-122">
          <mxGeometry x="59.379999999999995" y="125" width="30" height="30" as="geometry" />
        </mxCell>
        <mxCell id="pEXNB3gbHOLg0qpx5999-12" value="Supplier Portal API" style="sketch=0;points=[[0,0,0],[0.25,0,0],[0.5,0,0],[0.75,0,0],[1,0,0],[0,1,0],[0.25,1,0],[0.5,1,0],[0.75,1,0],[1,1,0],[0,0.25,0],[0,0.5,0],[0,0.75,0],[1,0.25,0],[1,0.5,0],[1,0.75,0]];outlineConnect=0;fontColor=#232F3E;fillColor=#ED7100;strokeColor=#ffffff;dashed=0;verticalLabelPosition=bottom;verticalAlign=top;align=center;html=1;fontSize=12;fontStyle=0;aspect=fixed;shape=mxgraph.aws4.resourceIcon;resIcon=mxgraph.aws4.lambda;" vertex="1" parent="pEXNB3gbHOLg0qpx5999-122">
          <mxGeometry x="60.129999999999995" y="197" width="30" height="30" as="geometry" />
        </mxCell>
        <mxCell id="pEXNB3gbHOLg0qpx5999-14" style="edgeStyle=orthogonalEdgeStyle;rounded=0;orthogonalLoop=1;jettySize=auto;html=1;entryX=0.5;entryY=0;entryDx=0;entryDy=0;entryPerimeter=0;" edge="1" parent="pEXNB3gbHOLg0qpx5999-122" source="pEXNB3gbHOLg0qpx5999-5" target="pEXNB3gbHOLg0qpx5999-11">
          <mxGeometry relative="1" as="geometry" />
        </mxCell>
        <mxCell id="pEXNB3gbHOLg0qpx5999-15" style="edgeStyle=orthogonalEdgeStyle;rounded=0;orthogonalLoop=1;jettySize=auto;html=1;entryX=0.5;entryY=0;entryDx=0;entryDy=0;entryPerimeter=0;" edge="1" parent="pEXNB3gbHOLg0qpx5999-122" source="pEXNB3gbHOLg0qpx5999-11" target="pEXNB3gbHOLg0qpx5999-12">
          <mxGeometry relative="1" as="geometry" />
        </mxCell>
        <mxCell id="pEXNB3gbHOLg0qpx5999-16" value="AWS Lake Formation" style="sketch=0;points=[[0,0,0],[0.25,0,0],[0.5,0,0],[0.75,0,0],[1,0,0],[0,1,0],[0.25,1,0],[0.5,1,0],[0.75,1,0],[1,1,0],[0,0.25,0],[0,0.5,0],[0,0.75,0],[1,0.25,0],[1,0.5,0],[1,0.75,0]];outlineConnect=0;fontColor=#232F3E;fillColor=#8C4FFF;strokeColor=#ffffff;dashed=0;verticalLabelPosition=bottom;verticalAlign=top;align=center;html=1;fontSize=12;fontStyle=0;aspect=fixed;shape=mxgraph.aws4.resourceIcon;resIcon=mxgraph.aws4.lake_formation;" vertex="1" parent="pEXNB3gbHOLg0qpx5999-122">
          <mxGeometry x="60.129999999999995" y="275" width="30" height="30" as="geometry" />
        </mxCell>
        <mxCell id="pEXNB3gbHOLg0qpx5999-17" style="edgeStyle=orthogonalEdgeStyle;rounded=0;orthogonalLoop=1;jettySize=auto;html=1;entryX=0.5;entryY=0;entryDx=0;entryDy=0;entryPerimeter=0;" edge="1" parent="pEXNB3gbHOLg0qpx5999-122" source="pEXNB3gbHOLg0qpx5999-12" target="pEXNB3gbHOLg0qpx5999-16">
          <mxGeometry relative="1" as="geometry" />
        </mxCell>
        <mxCell id="pEXNB3gbHOLg0qpx5999-5" value="ECS&lt;br&gt;Supplier Portal UI" style="outlineConnect=0;dashed=0;verticalLabelPosition=bottom;verticalAlign=top;align=center;html=1;shape=mxgraph.aws3.ecs;fillColor=#F58534;gradientColor=none;" vertex="1" parent="pEXNB3gbHOLg0qpx5999-122">
          <mxGeometry x="58.879999999999995" y="35" width="31" height="30" as="geometry" />
        </mxCell>
        <mxCell id="pEXNB3gbHOLg0qpx5999-97" value="" style="group" vertex="1" connectable="0" parent="1">
          <mxGeometry x="848" y="470" width="150" height="350" as="geometry" />
        </mxCell>
        <mxCell id="pEXNB3gbHOLg0qpx5999-85" value="Administration Portal" style="fillColor=none;strokeColor=#5A6C86;dashed=1;verticalAlign=top;fontStyle=0;fontColor=#5A6C86;whiteSpace=wrap;html=1;" vertex="1" parent="pEXNB3gbHOLg0qpx5999-97">
          <mxGeometry width="150" height="350" as="geometry" />
        </mxCell>
        <mxCell id="pEXNB3gbHOLg0qpx5999-86" value="API Gateway" style="sketch=0;points=[[0,0,0],[0.25,0,0],[0.5,0,0],[0.75,0,0],[1,0,0],[0,1,0],[0.25,1,0],[0.5,1,0],[0.75,1,0],[1,1,0],[0,0.25,0],[0,0.5,0],[0,0.75,0],[1,0.25,0],[1,0.5,0],[1,0.75,0]];outlineConnect=0;fontColor=#232F3E;fillColor=#E7157B;strokeColor=#ffffff;dashed=0;verticalLabelPosition=bottom;verticalAlign=top;align=center;html=1;fontSize=12;fontStyle=0;aspect=fixed;shape=mxgraph.aws4.resourceIcon;resIcon=mxgraph.aws4.api_gateway;" vertex="1" parent="pEXNB3gbHOLg0qpx5999-97">
          <mxGeometry x="59.379999999999995" y="125" width="30" height="30" as="geometry" />
        </mxCell>
        <mxCell id="pEXNB3gbHOLg0qpx5999-88" value="Administration Portal API" style="sketch=0;points=[[0,0,0],[0.25,0,0],[0.5,0,0],[0.75,0,0],[1,0,0],[0,1,0],[0.25,1,0],[0.5,1,0],[0.75,1,0],[1,1,0],[0,0.25,0],[0,0.5,0],[0,0.75,0],[1,0.25,0],[1,0.5,0],[1,0.75,0]];outlineConnect=0;fontColor=#232F3E;fillColor=#ED7100;strokeColor=#ffffff;dashed=0;verticalLabelPosition=bottom;verticalAlign=top;align=center;html=1;fontSize=12;fontStyle=0;aspect=fixed;shape=mxgraph.aws4.resourceIcon;resIcon=mxgraph.aws4.lambda;" vertex="1" parent="pEXNB3gbHOLg0qpx5999-97">
          <mxGeometry x="60.13" y="197" width="29.87" height="29.87" as="geometry" />
        </mxCell>
        <mxCell id="pEXNB3gbHOLg0qpx5999-89" style="edgeStyle=orthogonalEdgeStyle;rounded=0;orthogonalLoop=1;jettySize=auto;html=1;entryX=0.5;entryY=0;entryDx=0;entryDy=0;entryPerimeter=0;" edge="1" source="pEXNB3gbHOLg0qpx5999-91" target="pEXNB3gbHOLg0qpx5999-86" parent="pEXNB3gbHOLg0qpx5999-97">
          <mxGeometry relative="1" as="geometry" />
        </mxCell>
        <mxCell id="pEXNB3gbHOLg0qpx5999-90" style="edgeStyle=orthogonalEdgeStyle;rounded=0;orthogonalLoop=1;jettySize=auto;html=1;entryX=0.5;entryY=0;entryDx=0;entryDy=0;entryPerimeter=0;" edge="1" source="pEXNB3gbHOLg0qpx5999-86" target="pEXNB3gbHOLg0qpx5999-88" parent="pEXNB3gbHOLg0qpx5999-97">
          <mxGeometry relative="1" as="geometry" />
        </mxCell>
        <mxCell id="pEXNB3gbHOLg0qpx5999-91" value="ECS&lt;br&gt;Administration Portal UI" style="outlineConnect=0;dashed=0;verticalLabelPosition=bottom;verticalAlign=top;align=center;html=1;shape=mxgraph.aws3.ecs;fillColor=#F58534;gradientColor=none;" vertex="1" parent="pEXNB3gbHOLg0qpx5999-97">
          <mxGeometry x="58.879999999999995" y="35" width="31" height="30" as="geometry" />
        </mxCell>
        <mxCell id="pEXNB3gbHOLg0qpx5999-87" style="edgeStyle=orthogonalEdgeStyle;rounded=0;orthogonalLoop=1;jettySize=auto;html=1;entryX=0;entryY=0.5;entryDx=0;entryDy=0;entryPerimeter=0;" edge="1" source="pEXNB3gbHOLg0qpx5999-88" target="pEXNB3gbHOLg0qpx5999-108" parent="pEXNB3gbHOLg0qpx5999-97">
          <mxGeometry relative="1" as="geometry">
            <mxPoint x="73.93333333333294" y="269" as="targetPoint" />
          </mxGeometry>
        </mxCell>
        <mxCell id="pEXNB3gbHOLg0qpx5999-108" value="DynamoDB" style="sketch=0;points=[[0,0,0],[0.25,0,0],[0.5,0,0],[0.75,0,0],[1,0,0],[0,1,0],[0.25,1,0],[0.5,1,0],[0.75,1,0],[1,1,0],[0,0.25,0],[0,0.5,0],[0,0.75,0],[1,0.25,0],[1,0.5,0],[1,0.75,0]];outlineConnect=0;fontColor=#232F3E;fillColor=#C925D1;strokeColor=#ffffff;dashed=0;verticalLabelPosition=bottom;verticalAlign=top;align=center;html=1;fontSize=12;fontStyle=0;aspect=fixed;shape=mxgraph.aws4.resourceIcon;resIcon=mxgraph.aws4.dynamodb;direction=south;" vertex="1" parent="pEXNB3gbHOLg0qpx5999-97">
          <mxGeometry x="59.879999999999995" y="295" width="30" height="30" as="geometry" />
        </mxCell>
        <mxCell id="pEXNB3gbHOLg0qpx5999-148" value="SNS" style="sketch=0;points=[[0,0,0],[0.25,0,0],[0.5,0,0],[0.75,0,0],[1,0,0],[0,1,0],[0.25,1,0],[0.5,1,0],[0.75,1,0],[1,1,0],[0,0.25,0],[0,0.5,0],[0,0.75,0],[1,0.25,0],[1,0.5,0],[1,0.75,0]];outlineConnect=0;fontColor=#232F3E;fillColor=#E7157B;strokeColor=#ffffff;dashed=0;verticalLabelPosition=bottom;verticalAlign=top;align=center;html=1;fontSize=12;fontStyle=0;aspect=fixed;shape=mxgraph.aws4.resourceIcon;resIcon=mxgraph.aws4.sns;" vertex="1" parent="1">
          <mxGeometry x="760" y="556" width="38" height="38" as="geometry" />
        </mxCell>
        <mxCell id="pEXNB3gbHOLg0qpx5999-94" value="" style="group" vertex="1" connectable="0" parent="1">
          <mxGeometry x="1028" y="1130" width="180" height="180" as="geometry" />
        </mxCell>
        <mxCell id="pEXNB3gbHOLg0qpx5999-27" value="Search and Prioritization Service" style="fillColor=none;strokeColor=#5A6C86;dashed=1;verticalAlign=top;fontStyle=0;fontColor=#5A6C86;whiteSpace=wrap;html=1;" vertex="1" parent="pEXNB3gbHOLg0qpx5999-94">
          <mxGeometry width="180" height="180" as="geometry" />
        </mxCell>
        <mxCell id="pEXNB3gbHOLg0qpx5999-28" value="Search API Gateway&lt;br&gt;" style="sketch=0;points=[[0,0,0],[0.25,0,0],[0.5,0,0],[0.75,0,0],[1,0,0],[0,1,0],[0.25,1,0],[0.5,1,0],[0.75,1,0],[1,1,0],[0,0.25,0],[0,0.5,0],[0,0.75,0],[1,0.25,0],[1,0.5,0],[1,0.75,0]];outlineConnect=0;fontColor=#232F3E;fillColor=#E7157B;strokeColor=#ffffff;dashed=0;verticalLabelPosition=bottom;verticalAlign=top;align=center;html=1;fontSize=12;fontStyle=0;aspect=fixed;shape=mxgraph.aws4.resourceIcon;resIcon=mxgraph.aws4.api_gateway;" vertex="1" parent="pEXNB3gbHOLg0qpx5999-94">
          <mxGeometry x="74.5" y="40" width="30" height="30" as="geometry" />
        </mxCell>
        <mxCell id="pEXNB3gbHOLg0qpx5999-33" value="Search and Prioritisation API&amp;nbsp;" style="sketch=0;points=[[0,0,0],[0.25,0,0],[0.5,0,0],[0.75,0,0],[1,0,0],[0,1,0],[0.25,1,0],[0.5,1,0],[0.75,1,0],[1,1,0],[0,0.25,0],[0,0.5,0],[0,0.75,0],[1,0.25,0],[1,0.5,0],[1,0.75,0]];outlineConnect=0;fontColor=#232F3E;fillColor=#ED7100;strokeColor=#ffffff;dashed=0;verticalLabelPosition=bottom;verticalAlign=top;align=center;html=1;fontSize=12;fontStyle=0;aspect=fixed;shape=mxgraph.aws4.resourceIcon;resIcon=mxgraph.aws4.lambda;" vertex="1" parent="pEXNB3gbHOLg0qpx5999-94">
          <mxGeometry x="76.5" y="110" width="28" height="28" as="geometry" />
        </mxCell>
        <mxCell id="pEXNB3gbHOLg0qpx5999-34" style="edgeStyle=orthogonalEdgeStyle;rounded=0;orthogonalLoop=1;jettySize=auto;html=1;" edge="1" parent="pEXNB3gbHOLg0qpx5999-94" source="pEXNB3gbHOLg0qpx5999-28" target="pEXNB3gbHOLg0qpx5999-33">
          <mxGeometry relative="1" as="geometry" />
        </mxCell>
        <mxCell id="pEXNB3gbHOLg0qpx5999-93" value="" style="group" vertex="1" connectable="0" parent="1">
          <mxGeometry x="570" y="470" width="150" height="350" as="geometry" />
        </mxCell>
        <mxCell id="pEXNB3gbHOLg0qpx5999-75" value="Employees Portal" style="fillColor=none;strokeColor=#5A6C86;dashed=1;verticalAlign=top;fontStyle=0;fontColor=#5A6C86;whiteSpace=wrap;html=1;" vertex="1" parent="pEXNB3gbHOLg0qpx5999-93">
          <mxGeometry width="150" height="350" as="geometry" />
        </mxCell>
        <mxCell id="pEXNB3gbHOLg0qpx5999-76" value="API Gateway" style="sketch=0;points=[[0,0,0],[0.25,0,0],[0.5,0,0],[0.75,0,0],[1,0,0],[0,1,0],[0.25,1,0],[0.5,1,0],[0.75,1,0],[1,1,0],[0,0.25,0],[0,0.5,0],[0,0.75,0],[1,0.25,0],[1,0.5,0],[1,0.75,0]];outlineConnect=0;fontColor=#232F3E;fillColor=#E7157B;strokeColor=#ffffff;dashed=0;verticalLabelPosition=bottom;verticalAlign=top;align=center;html=1;fontSize=12;fontStyle=0;aspect=fixed;shape=mxgraph.aws4.resourceIcon;resIcon=mxgraph.aws4.api_gateway;" vertex="1" parent="pEXNB3gbHOLg0qpx5999-93">
          <mxGeometry x="59.379999999999995" y="125" width="30" height="30" as="geometry" />
        </mxCell>
        <mxCell id="pEXNB3gbHOLg0qpx5999-77" value="Employees Portal API" style="sketch=0;points=[[0,0,0],[0.25,0,0],[0.5,0,0],[0.75,0,0],[1,0,0],[0,1,0],[0.25,1,0],[0.5,1,0],[0.75,1,0],[1,1,0],[0,0.25,0],[0,0.5,0],[0,0.75,0],[1,0.25,0],[1,0.5,0],[1,0.75,0]];outlineConnect=0;fontColor=#232F3E;fillColor=#ED7100;strokeColor=#ffffff;dashed=0;verticalLabelPosition=bottom;verticalAlign=top;align=center;html=1;fontSize=12;fontStyle=0;aspect=fixed;shape=mxgraph.aws4.resourceIcon;resIcon=mxgraph.aws4.lambda;" vertex="1" parent="pEXNB3gbHOLg0qpx5999-93">
          <mxGeometry x="60.129999999999995" y="197" width="30" height="30" as="geometry" />
        </mxCell>
        <mxCell id="pEXNB3gbHOLg0qpx5999-78" style="edgeStyle=orthogonalEdgeStyle;rounded=0;orthogonalLoop=1;jettySize=auto;html=1;entryX=0.5;entryY=0;entryDx=0;entryDy=0;entryPerimeter=0;" edge="1" parent="pEXNB3gbHOLg0qpx5999-93" source="pEXNB3gbHOLg0qpx5999-82" target="pEXNB3gbHOLg0qpx5999-76">
          <mxGeometry relative="1" as="geometry" />
        </mxCell>
        <mxCell id="pEXNB3gbHOLg0qpx5999-79" style="edgeStyle=orthogonalEdgeStyle;rounded=0;orthogonalLoop=1;jettySize=auto;html=1;entryX=0.5;entryY=0;entryDx=0;entryDy=0;entryPerimeter=0;" edge="1" parent="pEXNB3gbHOLg0qpx5999-93" source="pEXNB3gbHOLg0qpx5999-76" target="pEXNB3gbHOLg0qpx5999-77">
          <mxGeometry relative="1" as="geometry" />
        </mxCell>
        <mxCell id="pEXNB3gbHOLg0qpx5999-82" value="ECS&lt;br&gt;Employees Portal UI" style="outlineConnect=0;dashed=0;verticalLabelPosition=bottom;verticalAlign=top;align=center;html=1;shape=mxgraph.aws3.ecs;fillColor=#F58534;gradientColor=none;" vertex="1" parent="pEXNB3gbHOLg0qpx5999-93">
          <mxGeometry x="58.879999999999995" y="35" width="31" height="30" as="geometry" />
        </mxCell>
        <mxCell id="pEXNB3gbHOLg0qpx5999-84" style="edgeStyle=orthogonalEdgeStyle;rounded=0;orthogonalLoop=1;jettySize=auto;html=1;entryX=0.5;entryY=0;entryDx=0;entryDy=0;entryPerimeter=0;" edge="1" parent="pEXNB3gbHOLg0qpx5999-93" source="pEXNB3gbHOLg0qpx5999-77" target="pEXNB3gbHOLg0qpx5999-106">
          <mxGeometry relative="1" as="geometry">
            <mxPoint x="73.93333333333294" y="269" as="targetPoint" />
          </mxGeometry>
        </mxCell>
        <mxCell id="pEXNB3gbHOLg0qpx5999-106" value="DynamoDB" style="sketch=0;points=[[0,0,0],[0.25,0,0],[0.5,0,0],[0.75,0,0],[1,0,0],[0,1,0],[0.25,1,0],[0.5,1,0],[0.75,1,0],[1,1,0],[0,0.25,0],[0,0.5,0],[0,0.75,0],[1,0.25,0],[1,0.5,0],[1,0.75,0]];outlineConnect=0;fontColor=#232F3E;fillColor=#C925D1;strokeColor=#ffffff;dashed=0;verticalLabelPosition=bottom;verticalAlign=top;align=center;html=1;fontSize=12;fontStyle=0;aspect=fixed;shape=mxgraph.aws4.resourceIcon;resIcon=mxgraph.aws4.dynamodb;" vertex="1" parent="pEXNB3gbHOLg0qpx5999-93">
          <mxGeometry x="60" y="290" width="30" height="30" as="geometry" />
        </mxCell>
        <mxCell id="pEXNB3gbHOLg0qpx5999-109" value="SQS for CTC" style="sketch=0;points=[[0,0,0],[0.25,0,0],[0.5,0,0],[0.75,0,0],[1,0,0],[0,1,0],[0.25,1,0],[0.5,1,0],[0.75,1,0],[1,1,0],[0,0.25,0],[0,0.5,0],[0,0.75,0],[1,0.25,0],[1,0.5,0],[1,0.75,0]];outlineConnect=0;fontColor=#232F3E;fillColor=#E7157B;strokeColor=#ffffff;dashed=0;verticalLabelPosition=bottom;verticalAlign=top;align=center;html=1;fontSize=12;fontStyle=0;aspect=fixed;shape=mxgraph.aws4.resourceIcon;resIcon=mxgraph.aws4.sqs;" vertex="1" parent="1">
          <mxGeometry x="430" y="600" width="30" height="30" as="geometry" />
        </mxCell>
        <mxCell id="pEXNB3gbHOLg0qpx5999-31" value="" style="group" vertex="1" connectable="0" parent="1">
          <mxGeometry x="1080" y="880" width="259.5" height="100" as="geometry" />
        </mxCell>
        <mxCell id="pEXNB3gbHOLg0qpx5999-48" value="" style="group" vertex="1" connectable="0" parent="pEXNB3gbHOLg0qpx5999-31">
          <mxGeometry width="240.85000000000002" height="100" as="geometry" />
        </mxCell>
        <mxCell id="pEXNB3gbHOLg0qpx5999-19" value="Hotel Booking Data" style="sketch=0;outlineConnect=0;fontColor=#232F3E;gradientColor=none;fillColor=#7AA116;strokeColor=none;dashed=0;verticalLabelPosition=bottom;verticalAlign=top;align=center;html=1;fontSize=12;fontStyle=0;aspect=fixed;pointerEvents=1;shape=mxgraph.aws4.bucket;" vertex="1" parent="pEXNB3gbHOLg0qpx5999-48">
          <mxGeometry x="55.60714285714286" y="22.142857142857146" width="23.58338647959184" height="24.52672193877551" as="geometry" />
        </mxCell>
        <mxCell id="pEXNB3gbHOLg0qpx5999-20" value="Transport pricing" style="sketch=0;outlineConnect=0;fontColor=#232F3E;gradientColor=none;fillColor=#7AA116;strokeColor=none;dashed=0;verticalLabelPosition=bottom;verticalAlign=top;align=center;html=1;fontSize=12;fontStyle=0;aspect=fixed;pointerEvents=1;shape=mxgraph.aws4.bucket;" vertex="1" parent="pEXNB3gbHOLg0qpx5999-48">
          <mxGeometry x="157.55357142857144" y="22.142857142857146" width="23.58338647959184" height="24.52672193877551" as="geometry" />
        </mxCell>
        <mxCell id="pEXNB3gbHOLg0qpx5999-18" value="Amazon S3 Data Lake" style="fillColor=none;strokeColor=#5A6C86;dashed=1;verticalAlign=top;fontStyle=0;fontColor=#5A6C86;whiteSpace=wrap;html=1;" vertex="1" parent="pEXNB3gbHOLg0qpx5999-48">
          <mxGeometry x="-9.149999999999977" width="250" height="100" as="geometry" />
        </mxCell>
        <mxCell id="pEXNB3gbHOLg0qpx5999-128" value="" style="group" vertex="1" connectable="0" parent="1">
          <mxGeometry x="540" y="880" width="181" height="110" as="geometry" />
        </mxCell>
        <mxCell id="pEXNB3gbHOLg0qpx5999-123" value="CloudWatch" style="sketch=0;points=[[0,0,0],[0.25,0,0],[0.5,0,0],[0.75,0,0],[1,0,0],[0,1,0],[0.25,1,0],[0.5,1,0],[0.75,1,0],[1,1,0],[0,0.25,0],[0,0.5,0],[0,0.75,0],[1,0.25,0],[1,0.5,0],[1,0.75,0]];points=[[0,0,0],[0.25,0,0],[0.5,0,0],[0.75,0,0],[1,0,0],[0,1,0],[0.25,1,0],[0.5,1,0],[0.75,1,0],[1,1,0],[0,0.25,0],[0,0.5,0],[0,0.75,0],[1,0.25,0],[1,0.5,0],[1,0.75,0]];outlineConnect=0;fontColor=#232F3E;fillColor=#E7157B;strokeColor=#ffffff;dashed=0;verticalLabelPosition=bottom;verticalAlign=top;align=center;html=1;fontSize=12;fontStyle=0;aspect=fixed;shape=mxgraph.aws4.resourceIcon;resIcon=mxgraph.aws4.cloudwatch_2;" vertex="1" parent="pEXNB3gbHOLg0qpx5999-128">
          <mxGeometry x="13.760233918128657" y="30" width="50" height="50" as="geometry" />
        </mxCell>
        <mxCell id="pEXNB3gbHOLg0qpx5999-126" value="SNS" style="sketch=0;points=[[0,0,0],[0.25,0,0],[0.5,0,0],[0.75,0,0],[1,0,0],[0,1,0],[0.25,1,0],[0.5,1,0],[0.75,1,0],[1,1,0],[0,0.25,0],[0,0.5,0],[0,0.75,0],[1,0.25,0],[1,0.5,0],[1,0.75,0]];outlineConnect=0;fontColor=#232F3E;fillColor=#E7157B;strokeColor=#ffffff;dashed=0;verticalLabelPosition=bottom;verticalAlign=top;align=center;html=1;fontSize=12;fontStyle=0;aspect=fixed;shape=mxgraph.aws4.resourceIcon;resIcon=mxgraph.aws4.sns;" vertex="1" parent="pEXNB3gbHOLg0qpx5999-128">
          <mxGeometry x="112.19883040935673" y="30" width="54" height="54" as="geometry" />
        </mxCell>
        <mxCell id="pEXNB3gbHOLg0qpx5999-127" value="Logging, Metrics and Alerts" style="fillColor=none;strokeColor=#5A6C86;dashed=1;verticalAlign=top;fontStyle=0;fontColor=#5A6C86;whiteSpace=wrap;html=1;" vertex="1" parent="pEXNB3gbHOLg0qpx5999-128">
          <mxGeometry width="181.00000000000003" height="110" as="geometry" />
        </mxCell>
        <mxCell id="pEXNB3gbHOLg0qpx5999-317" value="" style="group" vertex="1" connectable="0" parent="1">
          <mxGeometry x="816" y="865" width="180" height="240" as="geometry" />
        </mxCell>
        <mxCell id="pEXNB3gbHOLg0qpx5999-43" value="Approval and Booking Service" style="fillColor=none;strokeColor=#5A6C86;dashed=1;verticalAlign=top;fontStyle=0;fontColor=#5A6C86;whiteSpace=wrap;html=1;" vertex="1" parent="pEXNB3gbHOLg0qpx5999-317">
          <mxGeometry width="180" height="240" as="geometry" />
        </mxCell>
        <mxCell id="pEXNB3gbHOLg0qpx5999-45" value="API Gateway" style="sketch=0;points=[[0,0,0],[0.25,0,0],[0.5,0,0],[0.75,0,0],[1,0,0],[0,1,0],[0.25,1,0],[0.5,1,0],[0.75,1,0],[1,1,0],[0,0.25,0],[0,0.5,0],[0,0.75,0],[1,0.25,0],[1,0.5,0],[1,0.75,0]];outlineConnect=0;fontColor=#232F3E;fillColor=#E7157B;strokeColor=#ffffff;dashed=0;verticalLabelPosition=bottom;verticalAlign=top;align=center;html=1;fontSize=12;fontStyle=0;aspect=fixed;shape=mxgraph.aws4.resourceIcon;resIcon=mxgraph.aws4.api_gateway;" vertex="1" parent="pEXNB3gbHOLg0qpx5999-317">
          <mxGeometry x="73" y="36" width="34" height="34" as="geometry" />
        </mxCell>
        <mxCell id="pEXNB3gbHOLg0qpx5999-46" value="Approval and Booking API&amp;nbsp;" style="sketch=0;points=[[0,0,0],[0.25,0,0],[0.5,0,0],[0.75,0,0],[1,0,0],[0,1,0],[0.25,1,0],[0.5,1,0],[0.75,1,0],[1,1,0],[0,0.25,0],[0,0.5,0],[0,0.75,0],[1,0.25,0],[1,0.5,0],[1,0.75,0]];outlineConnect=0;fontColor=#232F3E;fillColor=#ED7100;strokeColor=#ffffff;dashed=0;verticalLabelPosition=bottom;verticalAlign=top;align=center;html=1;fontSize=12;fontStyle=0;aspect=fixed;shape=mxgraph.aws4.resourceIcon;resIcon=mxgraph.aws4.lambda;" vertex="1" parent="pEXNB3gbHOLg0qpx5999-317">
          <mxGeometry x="76" y="106" width="28" height="28" as="geometry" />
        </mxCell>
        <mxCell id="pEXNB3gbHOLg0qpx5999-44" style="edgeStyle=orthogonalEdgeStyle;rounded=0;orthogonalLoop=1;jettySize=auto;html=1;" edge="1" source="pEXNB3gbHOLg0qpx5999-45" target="pEXNB3gbHOLg0qpx5999-46" parent="pEXNB3gbHOLg0qpx5999-317">
          <mxGeometry relative="1" as="geometry" />
        </mxCell>
        <mxCell id="pEXNB3gbHOLg0qpx5999-162" value="DynamoDB" style="sketch=0;points=[[0,0,0],[0.25,0,0],[0.5,0,0],[0.75,0,0],[1,0,0],[0,1,0],[0.25,1,0],[0.5,1,0],[0.75,1,0],[1,1,0],[0,0.25,0],[0,0.5,0],[0,0.75,0],[1,0.25,0],[1,0.5,0],[1,0.75,0]];outlineConnect=0;fontColor=#232F3E;fillColor=#C925D1;strokeColor=#ffffff;dashed=0;verticalLabelPosition=bottom;verticalAlign=top;align=center;html=1;fontSize=12;fontStyle=0;aspect=fixed;shape=mxgraph.aws4.resourceIcon;resIcon=mxgraph.aws4.dynamodb;" vertex="1" parent="pEXNB3gbHOLg0qpx5999-317">
          <mxGeometry x="75" y="176" width="30" height="30" as="geometry" />
        </mxCell>
        <mxCell id="pEXNB3gbHOLg0qpx5999-163" style="edgeStyle=orthogonalEdgeStyle;rounded=0;orthogonalLoop=1;jettySize=auto;html=1;entryX=0.5;entryY=0;entryDx=0;entryDy=0;entryPerimeter=0;" edge="1" parent="pEXNB3gbHOLg0qpx5999-317" source="pEXNB3gbHOLg0qpx5999-46" target="pEXNB3gbHOLg0qpx5999-162">
          <mxGeometry relative="1" as="geometry" />
        </mxCell>
        <mxCell id="pEXNB3gbHOLg0qpx5999-333" value="" style="group" vertex="1" connectable="0" parent="1">
          <mxGeometry x="392" y="1190" width="450" height="305" as="geometry" />
        </mxCell>
        <mxCell id="pEXNB3gbHOLg0qpx5999-59" value="Changes Management" style="fillColor=none;strokeColor=#5A6C86;dashed=1;verticalAlign=top;fontStyle=0;fontColor=#5A6C86;whiteSpace=wrap;html=1;" vertex="1" parent="pEXNB3gbHOLg0qpx5999-333">
          <mxGeometry x="30" width="420" height="290" as="geometry" />
        </mxCell>
        <mxCell id="pEXNB3gbHOLg0qpx5999-61" value="Requirement API Gateway" style="sketch=0;points=[[0,0,0],[0.25,0,0],[0.5,0,0],[0.75,0,0],[1,0,0],[0,1,0],[0.25,1,0],[0.5,1,0],[0.75,1,0],[1,1,0],[0,0.25,0],[0,0.5,0],[0,0.75,0],[1,0.25,0],[1,0.5,0],[1,0.75,0]];outlineConnect=0;fontColor=#232F3E;fillColor=#E7157B;strokeColor=#ffffff;dashed=0;verticalLabelPosition=bottom;verticalAlign=top;align=center;html=1;fontSize=12;fontStyle=0;aspect=fixed;shape=mxgraph.aws4.resourceIcon;resIcon=mxgraph.aws4.api_gateway;" vertex="1" parent="pEXNB3gbHOLg0qpx5999-333">
          <mxGeometry x="349.56" y="25" width="30" height="30" as="geometry" />
        </mxCell>
        <mxCell id="pEXNB3gbHOLg0qpx5999-62" value="Requirements API&amp;nbsp;" style="sketch=0;points=[[0,0,0],[0.25,0,0],[0.5,0,0],[0.75,0,0],[1,0,0],[0,1,0],[0.25,1,0],[0.5,1,0],[0.75,1,0],[1,1,0],[0,0.25,0],[0,0.5,0],[0,0.75,0],[1,0.25,0],[1,0.5,0],[1,0.75,0]];outlineConnect=0;fontColor=#232F3E;fillColor=#ED7100;strokeColor=#ffffff;dashed=0;verticalLabelPosition=bottom;verticalAlign=top;align=center;html=1;fontSize=12;fontStyle=0;aspect=fixed;shape=mxgraph.aws4.resourceIcon;resIcon=mxgraph.aws4.lambda;" vertex="1" parent="pEXNB3gbHOLg0qpx5999-333">
          <mxGeometry x="350.56" y="135" width="28" height="28" as="geometry" />
        </mxCell>
        <mxCell id="pEXNB3gbHOLg0qpx5999-60" style="edgeStyle=orthogonalEdgeStyle;rounded=0;orthogonalLoop=1;jettySize=auto;html=1;" edge="1" source="pEXNB3gbHOLg0qpx5999-61" target="pEXNB3gbHOLg0qpx5999-62" parent="pEXNB3gbHOLg0qpx5999-333">
          <mxGeometry relative="1" as="geometry" />
        </mxCell>
        <mxCell id="pEXNB3gbHOLg0qpx5999-63" value="Track&amp;nbsp; CTC changes" style="sketch=0;points=[[0,0,0],[0.25,0,0],[0.5,0,0],[0.75,0,0],[1,0,0],[0,1,0],[0.25,1,0],[0.5,1,0],[0.75,1,0],[1,1,0],[0,0.25,0],[0,0.5,0],[0,0.75,0],[1,0.25,0],[1,0.5,0],[1,0.75,0]];outlineConnect=0;fontColor=#232F3E;fillColor=#ED7100;strokeColor=#ffffff;dashed=0;verticalLabelPosition=bottom;verticalAlign=top;align=center;html=1;fontSize=12;fontStyle=0;aspect=fixed;shape=mxgraph.aws4.resourceIcon;resIcon=mxgraph.aws4.lambda;" vertex="1" parent="pEXNB3gbHOLg0qpx5999-333">
          <mxGeometry x="49.56" y="135" width="28" height="28" as="geometry" />
        </mxCell>
        <mxCell id="pEXNB3gbHOLg0qpx5999-70" style="edgeStyle=orthogonalEdgeStyle;rounded=0;orthogonalLoop=1;jettySize=auto;html=1;" edge="1" parent="pEXNB3gbHOLg0qpx5999-333" source="pEXNB3gbHOLg0qpx5999-65">
          <mxGeometry relative="1" as="geometry">
            <mxPoint x="213.1333333333332" y="239" as="targetPoint" />
          </mxGeometry>
        </mxCell>
        <mxCell id="pEXNB3gbHOLg0qpx5999-65" value="Load and &lt;br&gt;update CTC changes" style="sketch=0;points=[[0,0,0],[0.25,0,0],[0.5,0,0],[0.75,0,0],[1,0,0],[0,1,0],[0.25,1,0],[0.5,1,0],[0.75,1,0],[1,1,0],[0,0.25,0],[0,0.5,0],[0,0.75,0],[1,0.25,0],[1,0.5,0],[1,0.75,0]];outlineConnect=0;fontColor=#232F3E;fillColor=#ED7100;strokeColor=#ffffff;dashed=0;verticalLabelPosition=bottom;verticalAlign=top;align=center;html=1;fontSize=12;fontStyle=0;aspect=fixed;shape=mxgraph.aws4.resourceIcon;resIcon=mxgraph.aws4.lambda;" vertex="1" parent="pEXNB3gbHOLg0qpx5999-333">
          <mxGeometry x="195.56" y="135" width="28" height="28" as="geometry" />
        </mxCell>
        <mxCell id="pEXNB3gbHOLg0qpx5999-102" value="DynamoDB" style="sketch=0;points=[[0,0,0],[0.25,0,0],[0.5,0,0],[0.75,0,0],[1,0,0],[0,1,0],[0.25,1,0],[0.5,1,0],[0.75,1,0],[1,1,0],[0,0.25,0],[0,0.5,0],[0,0.75,0],[1,0.25,0],[1,0.5,0],[1,0.75,0]];outlineConnect=0;fontColor=#232F3E;fillColor=#C925D1;strokeColor=#ffffff;dashed=0;verticalLabelPosition=bottom;verticalAlign=top;align=center;html=1;fontSize=12;fontStyle=0;aspect=fixed;shape=mxgraph.aws4.resourceIcon;resIcon=mxgraph.aws4.dynamodb;" vertex="1" parent="pEXNB3gbHOLg0qpx5999-333">
          <mxGeometry x="200" y="240" width="30" height="30" as="geometry" />
        </mxCell>
        <mxCell id="pEXNB3gbHOLg0qpx5999-104" style="edgeStyle=orthogonalEdgeStyle;rounded=0;orthogonalLoop=1;jettySize=auto;html=1;entryX=1;entryY=0.5;entryDx=0;entryDy=0;entryPerimeter=0;" edge="1" parent="pEXNB3gbHOLg0qpx5999-333" source="pEXNB3gbHOLg0qpx5999-62" target="pEXNB3gbHOLg0qpx5999-102">
          <mxGeometry relative="1" as="geometry" />
        </mxCell>
        <mxCell id="pEXNB3gbHOLg0qpx5999-105" style="edgeStyle=orthogonalEdgeStyle;rounded=0;orthogonalLoop=1;jettySize=auto;html=1;entryX=0;entryY=0.5;entryDx=0;entryDy=0;entryPerimeter=0;" edge="1" parent="pEXNB3gbHOLg0qpx5999-333" source="pEXNB3gbHOLg0qpx5999-63" target="pEXNB3gbHOLg0qpx5999-102">
          <mxGeometry relative="1" as="geometry" />
        </mxCell>
        <mxCell id="pEXNB3gbHOLg0qpx5999-101" value="VPC" style="points=[[0,0],[0.25,0],[0.5,0],[0.75,0],[1,0],[1,0.25],[1,0.5],[1,0.75],[1,1],[0.75,1],[0.5,1],[0.25,1],[0,1],[0,0.75],[0,0.5],[0,0.25]];outlineConnect=0;gradientColor=none;html=1;whiteSpace=wrap;fontSize=12;fontStyle=0;container=0;pointerEvents=0;collapsible=0;recursiveResize=0;shape=mxgraph.aws4.group;grIcon=mxgraph.aws4.group_vpc2;strokeColor=#8C4FFF;fillColor=none;verticalAlign=top;align=left;spacingLeft=30;fontColor=#AAB7B8;dashed=0;" vertex="1" parent="1">
          <mxGeometry x="390" y="410" width="970" height="1110" as="geometry" />
        </mxCell>
        <mxCell id="pEXNB3gbHOLg0qpx5999-336" style="edgeStyle=orthogonalEdgeStyle;rounded=0;orthogonalLoop=1;jettySize=auto;html=1;entryX=0;entryY=0.5;entryDx=0;entryDy=0;entryPerimeter=0;" edge="1" parent="1" source="pEXNB3gbHOLg0qpx5999-58" target="pEXNB3gbHOLg0qpx5999-109">
          <mxGeometry relative="1" as="geometry" />
        </mxCell>
        <mxCell id="pEXNB3gbHOLg0qpx5999-341" style="edgeStyle=orthogonalEdgeStyle;rounded=0;orthogonalLoop=1;jettySize=auto;html=1;entryX=0.006;entryY=0.558;entryDx=0;entryDy=0;entryPerimeter=0;" edge="1" parent="1" source="pEXNB3gbHOLg0qpx5999-27" target="pEXNB3gbHOLg0qpx5999-143">
          <mxGeometry relative="1" as="geometry" />
        </mxCell>
        <mxCell id="pEXNB3gbHOLg0qpx5999-367" value="Request/search data" style="edgeLabel;html=1;align=center;verticalAlign=middle;resizable=0;points=[];" vertex="1" connectable="0" parent="pEXNB3gbHOLg0qpx5999-341">
          <mxGeometry x="-0.317" y="-1" relative="1" as="geometry">
            <mxPoint x="-1" as="offset" />
          </mxGeometry>
        </mxCell>
        <mxCell id="pEXNB3gbHOLg0qpx5999-343" style="edgeStyle=orthogonalEdgeStyle;rounded=0;orthogonalLoop=1;jettySize=auto;html=1;entryX=0.055;entryY=0.008;entryDx=0;entryDy=0;entryPerimeter=0;" edge="1" parent="1" source="pEXNB3gbHOLg0qpx5999-109" target="pEXNB3gbHOLg0qpx5999-59">
          <mxGeometry relative="1" as="geometry" />
        </mxCell>
        <mxCell id="pEXNB3gbHOLg0qpx5999-355" value="Updata CTC data" style="edgeLabel;html=1;align=center;verticalAlign=middle;resizable=0;points=[];" vertex="1" connectable="0" parent="pEXNB3gbHOLg0qpx5999-343">
          <mxGeometry x="-0.0604" y="1" relative="1" as="geometry">
            <mxPoint y="-1" as="offset" />
          </mxGeometry>
        </mxCell>
        <mxCell id="pEXNB3gbHOLg0qpx5999-344" style="edgeStyle=orthogonalEdgeStyle;rounded=0;orthogonalLoop=1;jettySize=auto;html=1;entryX=0.338;entryY=0.023;entryDx=0;entryDy=0;entryPerimeter=0;" edge="1" parent="1" source="pEXNB3gbHOLg0qpx5999-25" target="pEXNB3gbHOLg0qpx5999-18">
          <mxGeometry relative="1" as="geometry" />
        </mxCell>
        <mxCell id="pEXNB3gbHOLg0qpx5999-361" value="Upload data" style="edgeLabel;html=1;align=center;verticalAlign=middle;resizable=0;points=[];" vertex="1" connectable="0" parent="pEXNB3gbHOLg0qpx5999-344">
          <mxGeometry x="-0.2451" y="-1" relative="1" as="geometry">
            <mxPoint as="offset" />
          </mxGeometry>
        </mxCell>
        <mxCell id="pEXNB3gbHOLg0qpx5999-346" style="edgeStyle=orthogonalEdgeStyle;rounded=0;orthogonalLoop=1;jettySize=auto;html=1;entryX=0;entryY=0.25;entryDx=0;entryDy=0;" edge="1" parent="1" source="pEXNB3gbHOLg0qpx5999-75" target="pEXNB3gbHOLg0qpx5999-43">
          <mxGeometry relative="1" as="geometry" />
        </mxCell>
        <mxCell id="pEXNB3gbHOLg0qpx5999-358" value="Booking" style="edgeLabel;html=1;align=center;verticalAlign=middle;resizable=0;points=[];" vertex="1" connectable="0" parent="pEXNB3gbHOLg0qpx5999-346">
          <mxGeometry x="0.2837" relative="1" as="geometry">
            <mxPoint as="offset" />
          </mxGeometry>
        </mxCell>
        <mxCell id="pEXNB3gbHOLg0qpx5999-347" style="edgeStyle=orthogonalEdgeStyle;rounded=0;orthogonalLoop=1;jettySize=auto;html=1;entryX=0.186;entryY=1.017;entryDx=0;entryDy=0;entryPerimeter=0;" edge="1" parent="1" source="pEXNB3gbHOLg0qpx5999-27" target="pEXNB3gbHOLg0qpx5999-18">
          <mxGeometry relative="1" as="geometry" />
        </mxCell>
        <mxCell id="pEXNB3gbHOLg0qpx5999-366" value="Search and filter data" style="edgeLabel;html=1;align=center;verticalAlign=middle;resizable=0;points=[];" vertex="1" connectable="0" parent="pEXNB3gbHOLg0qpx5999-347">
          <mxGeometry x="0.2035" y="-1" relative="1" as="geometry">
            <mxPoint as="offset" />
          </mxGeometry>
        </mxCell>
        <mxCell id="pEXNB3gbHOLg0qpx5999-348" style="edgeStyle=orthogonalEdgeStyle;rounded=0;orthogonalLoop=1;jettySize=auto;html=1;entryX=1.001;entryY=0.325;entryDx=0;entryDy=0;entryPerimeter=0;exitX=-0.004;exitY=0.883;exitDx=0;exitDy=0;exitPerimeter=0;" edge="1" parent="1" source="pEXNB3gbHOLg0qpx5999-27" target="pEXNB3gbHOLg0qpx5999-59">
          <mxGeometry relative="1" as="geometry" />
        </mxCell>
        <mxCell id="pEXNB3gbHOLg0qpx5999-368" value="Request for requirements" style="edgeLabel;html=1;align=center;verticalAlign=middle;resizable=0;points=[];" vertex="1" connectable="0" parent="pEXNB3gbHOLg0qpx5999-348">
          <mxGeometry x="-0.0004" y="1" relative="1" as="geometry">
            <mxPoint x="1" as="offset" />
          </mxGeometry>
        </mxCell>
        <mxCell id="pEXNB3gbHOLg0qpx5999-349" style="edgeStyle=orthogonalEdgeStyle;rounded=0;orthogonalLoop=1;jettySize=auto;html=1;" edge="1" parent="1" source="pEXNB3gbHOLg0qpx5999-75">
          <mxGeometry relative="1" as="geometry">
            <mxPoint x="1030" y="1170" as="targetPoint" />
            <Array as="points">
              <mxPoint x="760" y="645" />
              <mxPoint x="760" y="1170" />
            </Array>
          </mxGeometry>
        </mxCell>
        <mxCell id="pEXNB3gbHOLg0qpx5999-357" value="Search" style="edgeLabel;html=1;align=center;verticalAlign=middle;resizable=0;points=[];" vertex="1" connectable="0" parent="pEXNB3gbHOLg0qpx5999-349">
          <mxGeometry x="0.0347" y="-1" relative="1" as="geometry">
            <mxPoint as="offset" />
          </mxGeometry>
        </mxCell>
        <mxCell id="pEXNB3gbHOLg0qpx5999-350" style="edgeStyle=orthogonalEdgeStyle;rounded=0;orthogonalLoop=1;jettySize=auto;html=1;entryX=0.081;entryY=-0.006;entryDx=0;entryDy=0;entryPerimeter=0;" edge="1" parent="1" source="pEXNB3gbHOLg0qpx5999-85" target="pEXNB3gbHOLg0qpx5999-27">
          <mxGeometry relative="1" as="geometry" />
        </mxCell>
        <mxCell id="pEXNB3gbHOLg0qpx5999-360" value="Search" style="edgeLabel;html=1;align=center;verticalAlign=middle;resizable=0;points=[];" vertex="1" connectable="0" parent="pEXNB3gbHOLg0qpx5999-350">
          <mxGeometry x="-0.3147" y="-1" relative="1" as="geometry">
            <mxPoint as="offset" />
          </mxGeometry>
        </mxCell>
        <mxCell id="pEXNB3gbHOLg0qpx5999-351" style="edgeStyle=orthogonalEdgeStyle;rounded=0;orthogonalLoop=1;jettySize=auto;html=1;entryX=0.5;entryY=0;entryDx=0;entryDy=0;" edge="1" parent="1" target="pEXNB3gbHOLg0qpx5999-43">
          <mxGeometry relative="1" as="geometry">
            <mxPoint x="905" y="820" as="sourcePoint" />
            <mxPoint x="904" y="860" as="targetPoint" />
          </mxGeometry>
        </mxCell>
        <mxCell id="pEXNB3gbHOLg0qpx5999-353" style="edgeStyle=orthogonalEdgeStyle;rounded=0;orthogonalLoop=1;jettySize=auto;html=1;entryX=0.5;entryY=1;entryDx=0;entryDy=0;" edge="1" parent="1" source="pEXNB3gbHOLg0qpx5999-59" target="pEXNB3gbHOLg0qpx5999-57">
          <mxGeometry relative="1" as="geometry" />
        </mxCell>
        <mxCell id="pEXNB3gbHOLg0qpx5999-354" value="Request for CTC data" style="edgeLabel;html=1;align=center;verticalAlign=middle;resizable=0;points=[];" vertex="1" connectable="0" parent="pEXNB3gbHOLg0qpx5999-353">
          <mxGeometry x="0.1486" relative="1" as="geometry">
            <mxPoint as="offset" />
          </mxGeometry>
        </mxCell>
        <mxCell id="pEXNB3gbHOLg0qpx5999-364" style="edgeStyle=orthogonalEdgeStyle;rounded=0;orthogonalLoop=1;jettySize=auto;html=1;entryX=0.5;entryY=0;entryDx=0;entryDy=0;" edge="1" parent="1" source="pEXNB3gbHOLg0qpx5999-362" target="pEXNB3gbHOLg0qpx5999-25">
          <mxGeometry relative="1" as="geometry" />
        </mxCell>
        <mxCell id="pEXNB3gbHOLg0qpx5999-365" value="Upload data/pricing" style="edgeLabel;html=1;align=center;verticalAlign=middle;resizable=0;points=[];" vertex="1" connectable="0" parent="pEXNB3gbHOLg0qpx5999-364">
          <mxGeometry x="0.0513" relative="1" as="geometry">
            <mxPoint as="offset" />
          </mxGeometry>
        </mxCell>
        <mxCell id="pEXNB3gbHOLg0qpx5999-362" value="Supplier" style="shape=umlActor;verticalLabelPosition=bottom;verticalAlign=top;html=1;outlineConnect=0;" vertex="1" parent="1">
          <mxGeometry x="1140" y="280" width="30" height="60" as="geometry" />
        </mxCell>
        <mxCell id="pEXNB3gbHOLg0qpx5999-369" style="edgeStyle=orthogonalEdgeStyle;rounded=0;orthogonalLoop=1;jettySize=auto;html=1;exitX=1;exitY=0.25;exitDx=0;exitDy=0;entryX=0;entryY=0.5;entryDx=0;entryDy=0;entryPerimeter=0;" edge="1" parent="1" source="pEXNB3gbHOLg0qpx5999-75" target="pEXNB3gbHOLg0qpx5999-148">
          <mxGeometry relative="1" as="geometry" />
        </mxCell>
        <mxCell id="pEXNB3gbHOLg0qpx5999-371" value="Changes" style="edgeLabel;html=1;align=center;verticalAlign=middle;resizable=0;points=[];" vertex="1" connectable="0" parent="pEXNB3gbHOLg0qpx5999-369">
          <mxGeometry x="-0.4663" y="-1" relative="1" as="geometry">
            <mxPoint as="offset" />
          </mxGeometry>
        </mxCell>
        <mxCell id="pEXNB3gbHOLg0qpx5999-370" style="edgeStyle=orthogonalEdgeStyle;rounded=0;orthogonalLoop=1;jettySize=auto;html=1;exitX=0;exitY=0.25;exitDx=0;exitDy=0;entryX=1;entryY=0.75;entryDx=0;entryDy=0;entryPerimeter=0;" edge="1" parent="1" source="pEXNB3gbHOLg0qpx5999-85" target="pEXNB3gbHOLg0qpx5999-148">
          <mxGeometry relative="1" as="geometry" />
        </mxCell>
        <mxCell id="pEXNB3gbHOLg0qpx5999-372" value="Changes" style="edgeLabel;html=1;align=center;verticalAlign=middle;resizable=0;points=[];" vertex="1" connectable="0" parent="pEXNB3gbHOLg0qpx5999-370">
          <mxGeometry x="-0.2497" y="1" relative="1" as="geometry">
            <mxPoint as="offset" />
          </mxGeometry>
        </mxCell>
        <mxCell id="pEXNB3gbHOLg0qpx5999-373" style="edgeStyle=orthogonalEdgeStyle;rounded=0;orthogonalLoop=1;jettySize=auto;html=1;" edge="1" parent="1" target="pEXNB3gbHOLg0qpx5999-148">
          <mxGeometry relative="1" as="geometry">
            <mxPoint x="830" y="865" as="sourcePoint" />
            <Array as="points">
              <mxPoint x="830" y="865" />
              <mxPoint x="830" y="730" />
              <mxPoint x="779" y="730" />
            </Array>
          </mxGeometry>
        </mxCell>
        <mxCell id="pEXNB3gbHOLg0qpx5999-374" value="Changes" style="edgeLabel;html=1;align=center;verticalAlign=middle;resizable=0;points=[];" vertex="1" connectable="0" parent="pEXNB3gbHOLg0qpx5999-373">
          <mxGeometry x="-0.7108" y="1" relative="1" as="geometry">
            <mxPoint as="offset" />
          </mxGeometry>
        </mxCell>
        <mxCell id="pEXNB3gbHOLg0qpx5999-375" style="edgeStyle=orthogonalEdgeStyle;rounded=0;orthogonalLoop=1;jettySize=auto;html=1;exitX=0.25;exitY=1;exitDx=0;exitDy=0;entryX=0.346;entryY=0.003;entryDx=0;entryDy=0;entryPerimeter=0;" edge="1" parent="1" source="pEXNB3gbHOLg0qpx5999-75" target="pEXNB3gbHOLg0qpx5999-127">
          <mxGeometry relative="1" as="geometry" />
        </mxCell>
        <mxCell id="pEXNB3gbHOLg0qpx5999-376" value="Logging" style="edgeLabel;html=1;align=center;verticalAlign=middle;resizable=0;points=[];" vertex="1" connectable="0" parent="pEXNB3gbHOLg0qpx5999-375">
          <mxGeometry x="-0.0132" relative="1" as="geometry">
            <mxPoint as="offset" />
          </mxGeometry>
        </mxCell>
        <mxCell id="pEXNB3gbHOLg0qpx5999-377" style="edgeStyle=orthogonalEdgeStyle;rounded=0;orthogonalLoop=1;jettySize=auto;html=1;exitX=0.25;exitY=0;exitDx=0;exitDy=0;entryX=-0.004;entryY=0.548;entryDx=0;entryDy=0;entryPerimeter=0;" edge="1" parent="1" source="pEXNB3gbHOLg0qpx5999-59" target="pEXNB3gbHOLg0qpx5999-127">
          <mxGeometry relative="1" as="geometry">
            <Array as="points">
              <mxPoint x="533" y="1090" />
              <mxPoint x="530" y="1090" />
              <mxPoint x="530" y="940" />
            </Array>
          </mxGeometry>
        </mxCell>
        <mxCell id="pEXNB3gbHOLg0qpx5999-378" value="Logging" style="edgeLabel;html=1;align=center;verticalAlign=middle;resizable=0;points=[];" vertex="1" connectable="0" parent="pEXNB3gbHOLg0qpx5999-377">
          <mxGeometry x="-0.1673" y="1" relative="1" as="geometry">
            <mxPoint as="offset" />
          </mxGeometry>
        </mxCell>
        <mxCell id="pEXNB3gbHOLg0qpx5999-379" style="edgeStyle=orthogonalEdgeStyle;rounded=0;orthogonalLoop=1;jettySize=auto;html=1;entryX=0.75;entryY=1;entryDx=0;entryDy=0;" edge="1" parent="1" source="pEXNB3gbHOLg0qpx5999-27" target="pEXNB3gbHOLg0qpx5999-127">
          <mxGeometry relative="1" as="geometry">
            <Array as="points">
              <mxPoint x="676" y="1180" />
            </Array>
          </mxGeometry>
        </mxCell>
        <mxCell id="pEXNB3gbHOLg0qpx5999-380" value="Logging" style="edgeLabel;html=1;align=center;verticalAlign=middle;resizable=0;points=[];" vertex="1" connectable="0" parent="pEXNB3gbHOLg0qpx5999-379">
          <mxGeometry x="0.652" y="-1" relative="1" as="geometry">
            <mxPoint as="offset" />
          </mxGeometry>
        </mxCell>
        <mxCell id="pEXNB3gbHOLg0qpx5999-381" style="edgeStyle=orthogonalEdgeStyle;rounded=0;orthogonalLoop=1;jettySize=auto;html=1;exitX=0.25;exitY=0;exitDx=0;exitDy=0;entryX=-0.011;entryY=0.306;entryDx=0;entryDy=0;entryPerimeter=0;" edge="1" parent="1" source="pEXNB3gbHOLg0qpx5999-25" target="pEXNB3gbHOLg0qpx5999-127">
          <mxGeometry relative="1" as="geometry">
            <Array as="points">
              <mxPoint x="1118" y="420" />
              <mxPoint x="520" y="420" />
              <mxPoint x="520" y="914" />
            </Array>
          </mxGeometry>
        </mxCell>
        <mxCell id="pEXNB3gbHOLg0qpx5999-382" value="Logging" style="edgeLabel;html=1;align=center;verticalAlign=middle;resizable=0;points=[];" vertex="1" connectable="0" parent="pEXNB3gbHOLg0qpx5999-381">
          <mxGeometry x="-0.972" relative="1" as="geometry">
            <mxPoint as="offset" />
          </mxGeometry>
        </mxCell>
        <mxCell id="pEXNB3gbHOLg0qpx5999-383" style="edgeStyle=orthogonalEdgeStyle;rounded=0;orthogonalLoop=1;jettySize=auto;html=1;entryX=1.002;entryY=0.658;entryDx=0;entryDy=0;entryPerimeter=0;" edge="1" parent="1" source="pEXNB3gbHOLg0qpx5999-43" target="pEXNB3gbHOLg0qpx5999-127">
          <mxGeometry relative="1" as="geometry" />
        </mxCell>
        <mxCell id="pEXNB3gbHOLg0qpx5999-384" value="Logging" style="edgeLabel;html=1;align=center;verticalAlign=middle;resizable=0;points=[];" vertex="1" connectable="0" parent="pEXNB3gbHOLg0qpx5999-383">
          <mxGeometry x="-0.6647" y="3" relative="1" as="geometry">
            <mxPoint as="offset" />
          </mxGeometry>
        </mxCell>
        <mxCell id="pEXNB3gbHOLg0qpx5999-385" style="edgeStyle=orthogonalEdgeStyle;rounded=0;orthogonalLoop=1;jettySize=auto;html=1;entryX=0;entryY=0;entryDx=0;entryDy=0;exitX=0.596;exitY=-0.003;exitDx=0;exitDy=0;exitPerimeter=0;" edge="1" parent="1" source="pEXNB3gbHOLg0qpx5999-85" target="pEXNB3gbHOLg0qpx5999-127">
          <mxGeometry relative="1" as="geometry">
            <Array as="points">
              <mxPoint x="937" y="430" />
              <mxPoint x="540" y="430" />
            </Array>
          </mxGeometry>
        </mxCell>
        <mxCell id="pEXNB3gbHOLg0qpx5999-386" value="Logging" style="edgeLabel;html=1;align=center;verticalAlign=middle;resizable=0;points=[];" vertex="1" connectable="0" parent="pEXNB3gbHOLg0qpx5999-385">
          <mxGeometry x="-0.9535" y="-1" relative="1" as="geometry">
            <mxPoint as="offset" />
          </mxGeometry>
        </mxCell>
        <mxCell id="pEXNB3gbHOLg0qpx5999-387" style="edgeStyle=orthogonalEdgeStyle;rounded=0;orthogonalLoop=1;jettySize=auto;html=1;entryX=0.144;entryY=0.003;entryDx=0;entryDy=0;entryPerimeter=0;" edge="1" parent="1" target="pEXNB3gbHOLg0qpx5999-59">
          <mxGeometry relative="1" as="geometry">
            <mxPoint x="920" y="470" as="sourcePoint" />
            <Array as="points">
              <mxPoint x="923" y="470" />
              <mxPoint x="923" y="450" />
              <mxPoint x="483" y="450" />
            </Array>
          </mxGeometry>
        </mxCell>
        <mxCell id="pEXNB3gbHOLg0qpx5999-388" value="Request requirements" style="edgeLabel;html=1;align=center;verticalAlign=middle;resizable=0;points=[];" vertex="1" connectable="0" parent="pEXNB3gbHOLg0qpx5999-387">
          <mxGeometry x="-0.6032" y="-2" relative="1" as="geometry">
            <mxPoint as="offset" />
          </mxGeometry>
        </mxCell>
      </root>
    </mxGraphModel>
  </diagram>
</mxfile>
